Coordinates
version=1
nRows=10
nColumns=63
inDegrees=yes

Units are S.I. units (second, meters, Newtons, ...)
If the header above contains a line with 'inDegrees', this indicates whether rotational values are in degrees (yes) or radians (no).

endheader
time	pelvis_tilt	pelvis_list	pelvis_rotation	pelvis_tx	pelvis_ty	pelvis_tz	hip_flexion_r	hip_adduction_r	hip_rotation_r	knee_angle_r	knee_angle_r_beta	ankle_angle_r	subtalar_angle_r	mtp_angle_r	hip_flexion_l	hip_adduction_l	hip_rotation_l	knee_angle_l	knee_angle_l_beta	ankle_angle_l	subtalar_angle_l	mtp_angle_l	L5_S1_Flex_Ext	L5_S1_Lat_Bending	L5_S1_axial_rotation	L4_L5_Flex_Ext	L4_L5_Lat_Bending	L4_L5_axial_rotation	L3_L4_Flex_Ext	L3_L4_Lat_Bending	L3_L4_axial_rotation	L2_L3_Flex_Ext	L2_L3_Lat_Bending	L2_L3_axial_rotation	L1_L2_Flex_Ext	L1_L2_Lat_Bending	L1_L2_axial_rotation	L1_T12_Flex_Ext	L1_T12_Lat_Bending	L1_T12_axial_rotation	Abs_r3	Abs_r2	Abs_r1	Abs_t1	Abs_t2	neck_flexion	neck_bending	neck_rotation	arm_flex_r	arm_add_r	arm_rot_r	elbow_flex_r	pro_sup_r	wrist_flex_r	wrist_dev_r	arm_flex_l	arm_add_l	arm_rot_l	elbow_flex_l	pro_sup_l	wrist_flex_l	wrist_dev_l
      6.75000000	      0.46824660	     -4.78461238	    116.07385816	      0.10388738	      1.02442554	      0.46193523	      6.40292995	     -5.92570273	    -27.50533189	     23.60482995	      0.41198200	     25.92502761	     14.29509311	      0.00000000	      2.66256938	     -2.82141675	      1.15896221	      8.19557914	      0.14303984	     25.57083217	     13.77748163	      0.00000000	      0.11799249	      0.04072406	      3.07752823	      0.21912384	      0.05416300	      3.26987374	      0.19384985	      0.09901648	      3.26987374	      0.13485361	      0.09901648	      2.69283720	      0.10956782	      0.08304450	      2.50049168	      0.06742091	      0.06308157	      2.30814617	      0.84280852	      0.46067871	     17.11628873	      0.00000000	      0.00000000	      5.21748429	     -3.48733622	    -29.03430795	   -133.36009259	   -168.73102080	   -119.40414082	     55.51410159	     74.12719954	     10.79173675	     17.57474344	    215.69380559	   -161.18162228	    200.97563648	     50.59773706	     88.68573296	      2.32795158	      1.56993582
      6.76666667	     -0.06733685	     -4.68414714	    116.63037707	      0.10554489	      1.02400136	      0.46036396	      5.69409384	     -6.14123545	    -27.86624850	     23.10769545	      0.40330537	     26.58907439	     14.50751619	      0.00000000	      2.29443816	     -2.53171569	      2.05710826	      8.08101641	      0.14104034	     25.70151382	     13.77673828	      0.00000000	      0.12247528	     -0.02374475	      3.20773982	      0.22744885	     -0.03158052	      3.40822356	      0.20121464	     -0.05773299	      3.40822356	      0.13997700	     -0.05773299	      2.80677234	      0.11373055	     -0.04842029	      2.60628861	      0.06998238	     -0.03678062	      2.40580487	      0.87482871	     -0.26860536	     17.84048657	      0.00000000	      0.00000000	      3.99393235	     -3.07346938	    -30.77108672	   -131.50834411	   -168.09740385	   -115.40638402	     55.64597655	     59.78833640	     12.44264206	     18.17285556	    218.99041974	   -161.62678933	    204.89269672	     48.10105134	     88.60914176	      0.45515030	      4.63696858
      6.78333333	     -0.54173455	     -4.66492000	    116.99967728	      0.10757185	      1.02315386	      0.45825777	      4.98554410	     -6.22980377	    -28.09051837	     22.39529705	      0.39087167	     27.26595160	     14.74054954	      0.00000000	      1.94086287	     -2.29839654	      2.79404708	      7.87515523	      0.13744739	     25.95442274	     13.74573423	      0.00000000	      0.13562821	     -0.09619298	      3.33047093	      0.25187514	     -0.12793666	      3.53862537	      0.22282358	     -0.23388361	      3.53862537	      0.15500948	     -0.23388361	      2.91416207	      0.12594435	     -0.19615672	      2.70600763	      0.07749796	     -0.14900293	      2.49785320	      0.96877871	     -1.08815422	     18.52308019	      0.00000000	      0.00000000	      3.39181124	     -2.54598685	    -32.35951273	   -129.24132175	   -167.39815263	   -110.11633019	     55.80083601	     49.24689570	     14.94479526	     17.56744811	    222.90013645	   -162.30280362	    210.15519138	     45.30048855	     88.53649904	     -0.39578506	      8.98841212
      6.80000000	     -1.03960275	     -4.67904005	    117.14921065	      0.10942233	      1.02210724	      0.45637165	      4.46524972	     -6.46216943	    -28.13306114	     22.01765573	      0.38428059	     27.83182223	     14.99069463	      0.00000000	      1.50961132	     -1.99737401	      3.51726212	      7.50474678	      0.13098254	     26.08081946	     13.48951625	      0.00000000	      0.14936822	     -0.15275693	      3.40138599	      0.27739173	     -0.20316671	      3.61397262	      0.24539705	     -0.37141319	      3.61397262	      0.17071294	     -0.37141319	      2.97621275	      0.13870333	     -0.31150192	      2.76362612	      0.08534900	     -0.23662048	      2.55103950	      1.06692228	     -1.72801691	     18.91748849	      0.00000000	      0.00000000	      3.75613673	     -1.79573228	    -32.12431617	   -126.10475506	   -166.78224285	   -102.63518080	     56.81458300	     35.73345149	     14.98541747	     20.16038733	    226.81754481	   -163.22578211	    216.41776830	     42.16586030	     88.46202955	     -1.90196106	     12.42598472
      6.81666667	     -1.53993138	     -4.79041757	    117.02504580	      0.11172326	      1.02114386	      0.45409696	      4.00800489	     -6.66638674	    -27.93649444	     21.48158106	      0.37492432	     28.26443881	     15.31303388	      0.00000000	      1.06401815	     -1.67858202	      3.90085650	      7.00222904	      0.12221195	     26.07370113	     13.32055347	      0.00000000	      0.18011282	     -0.22037587	      3.44025949	      0.33448753	     -0.29309991	      3.65527571	      0.29590736	     -0.53582189	      3.65527571	      0.20585095	     -0.53582189	      3.01022705	      0.16725277	     -0.44939047	      2.79521084	      0.10291647	     -0.34136222	      2.58019462	      1.28652790	     -2.49293592	     19.13369120	      0.00000000	      0.00000000	      4.73866439	     -0.78005936	    -31.51064591	   -123.27167468	   -166.64393881	    -96.40279426	     57.63383074	     34.88033161	     17.07746848	     19.98366310	    230.68616249	   -163.86864959	    222.84828788	     39.84113286	     88.42994520	     -0.10523621	     17.92949726
      6.83333333	     -2.00103052	     -4.75237693	    116.70710272	      0.11417000	      1.02066758	      0.45244902	      3.50784293	     -6.77026139	    -27.57233784	     20.92423338	      0.36519677	     28.44843217	     15.61677270	      0.00000000	      0.47292117	     -1.42036517	      4.55009528	      6.41545179	      0.11197076	     25.85532467	     12.52559105	      0.00000000	      0.19631353	     -0.25517335	      3.44007272	      0.36457386	     -0.33938055	      3.65507726	      0.32252351	     -0.62042847	      3.65507726	      0.22436674	     -0.62042847	      3.01006363	      0.18229675	     -0.52034949	      2.79505908	      0.11217355	     -0.39526351	      2.58005454	      1.40224794	     -2.88657193	     19.13265244	      0.00000000	      0.00000000	      6.26807612	      0.03157934	    -29.98045229	   -120.37794866	   -166.74532619	    -90.96950918	     58.55971663	     40.13621527	     19.79800365	     19.34985821	    234.10312174	   -164.27161878	    228.98792077	     38.15832973	     88.24995196	      3.06740143	     22.39853622
      6.85000000	     -2.31165221	     -4.56646595	    116.26328734	      0.11667243	      1.02079368	      0.45134571	      2.98490501	     -6.64482326	    -27.03210749	     20.29186972	      0.35415994	     28.37372113	     15.80724974	      0.00000000	     -0.21051242	     -1.34827246	      5.14488035	      5.77079142	      0.10071931	     25.49985642	     11.54864767	      0.00000000	      0.20905847	     -0.24055441	      3.36906992	      0.38824248	     -0.31993737	      3.57963679	      0.34346216	     -0.58488400	      3.57963679	      0.23893292	     -0.58488400	      2.94793618	      0.19413169	     -0.49053856	      2.73736931	      0.11945601	     -0.37261878	      2.52680244	      1.49328373	     -2.72119961	     18.73775617	      0.00000000	      0.00000000	      7.81818575	      0.57891166	    -27.43735461	   -117.62573757	   -167.17926708	    -87.29415882	     59.49595737	     51.58202645	     23.79657140	     18.12473543	    236.56099856	   -163.91309301	    232.81910875	     37.83568287	     88.07304285	      9.40163356	     26.44329835
      6.86666667	     -2.45807878	     -4.30745462	    115.85716483	      0.11925184	      1.02138373	      0.45078833	      2.48674034	     -6.32044876	    -26.46943957	     19.62083414	      0.34244816	     28.24976773	     15.94441221	      0.00000000	     -0.88173642	     -1.44758601	      5.96094514	      5.08117019	      0.08868315	     24.94768285	     10.22938351	      0.00000000	      0.21733818	     -0.17912896	      3.25062562	      0.40361873	     -0.23824152	      3.45378973	      0.35706489	     -0.43553416	      3.45378973	      0.24839580	     -0.43553416	      2.84429742	      0.20182023	     -0.36527978	      2.64113332	      0.12418703	     -0.27747076	      2.43796922	      1.55242486	     -2.02634266	     18.07900453	      0.00000000	      0.00000000	      9.07117143	      0.78699796	    -24.26898275	   -114.79300058	   -167.63579876	    -85.26504033	     60.67816463	     64.33825984	     28.41496441	     17.02349522	    239.05682933	   -162.47763844	    237.45773508	     38.65016367	     88.11451658	     17.63148082	     28.18829055
      6.88333333	     -2.64996923	     -4.11912357	    115.60354440	      0.12198508	      1.02203450	      0.45020705	      2.04187251	     -6.05522118	    -25.92917544	     19.02146629	      0.33198722	     28.27682645	     15.94051475	      0.00000000	     -1.44025398	     -1.48923733	      6.99468346	      4.49369451	      0.07842976	     24.35480283	      8.75693294	      0.00000000	      0.20630994	     -0.12117465	      3.12628874	      0.38313819	     -0.16116229	      3.32168179	      0.33894660	     -0.29462406	      3.32168179	      0.23579163	     -0.29462406	      2.73550265	      0.19157941	     -0.24709936	      2.54010960	      0.11788550	     -0.18769954	      2.34471656	      1.47365129	     -1.37075193	     17.38748010	      0.00000000	      0.00000000	     10.10591959	      0.70253432	    -21.95837603	   -111.59023880	   -167.93669405	    -84.53339452	     61.90132203	     76.38776319	     33.13911320	     14.75368006	    242.57651740	   -159.99620017	    244.78702989	     40.85142305	     88.52430480	     26.80049387	     26.53547603
      6.90000000	     -2.66763028	     -3.99494429	    115.51270625	      0.12458671	      1.02261029	      0.44929668	      1.69600958	     -5.65521377	    -25.55737189	     18.45515373	      0.32210320	     28.28803686	     15.90593574	      0.00000000	     -1.85405461	     -1.69661790	      8.03811152	      3.91403115	      0.06831273	     23.82182239	      7.49422796	      0.00000000	      0.20133625	     -0.04081229	      3.04521328	      0.37390155	     -0.05428035	      3.23553911	      0.33077532	     -0.09923101	      3.23553911	      0.23010720	     -0.09923101	      2.66456162	      0.18696084	     -0.08322443	      2.47423579	      0.11504353	     -0.06321824	      2.28390996	      1.43812469	     -0.46167683	     16.93656270	      0.00000000	      0.00000000	     10.55496449	      0.23426988	    -20.36611434	   -107.83863600	   -167.99242678	    -83.95653447	     62.69071793	     83.70865964	     36.51121928	     11.94332259	    246.90098649	   -156.73803013	    253.88411996	     44.90008749	     89.02684699	     31.67491149	     21.02817390
